<?xml version="1.0" standalone="no"?>
<!DOCTYPE svg PUBLIC "-//W3C//DTD SVG 20010904//EN"
 "http://www.w3.org/TR/2001/REC-SVG-20010904/DTD/svg10.dtd">
<svg version="1.0" xmlns="http://www.w3.org/2000/svg"
 width="500.000000pt" height="500.000000pt" viewBox="0 0 500.000000 500.000000"
 preserveAspectRatio="xMidYMid meet">
<metadata>
Created by potrace 1.14, written by Peter Selinger 2001-2017
</metadata>
<g transform="translate(0.000000,500.000000) scale(0.100000,-0.100000)"
fill="#000000" stroke="none">
<path d="M2328 4995 c-2 -1 -37 -5 -78 -9 -83 -7 -90 -8 -242 -36 -635 -119
-1221 -515 -1598 -1079 -165 -247 -327 -646 -365 -896 -3 -22 -7 -47 -10 -55
-17 -63 -33 -265 -32 -420 1 -558 169 -1058 506 -1510 85 -113 318 -358 396
-415 22 -17 49 -38 60 -48 45 -42 278 -190 387 -246 152 -79 397 -175 499
-196 8 -2 44 -10 80 -19 89 -22 231 -45 336 -55 97 -9 441 -7 513 4 282 41
396 71 685 178 16 6 74 32 128 59 394 194 721 476 969 838 57 84 162 256 163
270 1 3 13 28 27 55 54 105 151 371 173 476 2 9 12 59 23 110 11 52 24 121 27
154 4 33 9 69 12 80 9 42 11 413 3 488 -17 159 -24 198 -50 317 -89 397 -275
772 -538 1083 -33 40 -223 230 -277 277 -171 151 -466 330 -690 418 -319 125
-599 179 -942 180 -89 0 -163 -1 -165 -3z"/>
</g>
</svg>
